<?xml version="1.0" encoding="UTF-8"?>
<svg xmlns="http://www.w3.org/2000/svg" width="816" height="194" viewBox="0 0 816 194" role="img" aria-label="Languages used across GitHub repos">
  <defs>
    <style>
      .h1 { font: 800 16px system-ui, -apple-system, Segoe UI, Roboto, Helvetica, Arial; fill: #111827; }
      .sub { font: 500 12px system-ui, -apple-system, Segoe UI, Roboto, Helvetica, Arial; fill: #6b7280; }
      .abbr { font: 800 10px system-ui, -apple-system, Segoe UI, Roboto, Helvetica, Arial; }
      .name { font: 700 12px system-ui, -apple-system, Segoe UI, Roboto, Helvetica, Arial; fill: #111827; }
      .pct { font: 800 16px system-ui, -apple-system, Segoe UI, Roboto, Helvetica, Arial; fill: #111827; }
      .foot { font: 500 12px system-ui, -apple-system, Segoe UI, Roboto, Helvetica, Arial; fill: #6b7280; }
    </style>
  </defs>

  <rect x="0.5" y="0.5" width="815" height="193" rx="16" fill="#ffffff" stroke="#e5e7eb"/>
  <text x="18" y="30" class="h1">Languages used</text>
  <text x="18" y="48" class="sub">Across public repos • Updated: 2025-12-28</text>

  
    <g>
      <rect x="18" y="64" width="120" height="96" rx="14" fill="#ffffff" stroke="#e5e7eb"/>
      
      <g transform="translate(34, 82) scale(0.75)" aria-hidden="true">
        <path d="M1.125 0C.502 0 0 .502 0 1.125v21.75C0 23.498.502 24 1.125 24h21.75c.623 0 1.125-.502 1.125-1.125V1.125C24 .502 23.498 0 22.875 0zm17.363 9.75c.612 0 1.154.037 1.627.111a6.38 6.38 0 0 1 1.306.34v2.458a3.95 3.95 0 0 0-.643-.361 5.093 5.093 0 0 0-.717-.26 5.453 5.453 0 0 0-1.426-.2c-.3 0-.573.028-.819.086a2.1 2.1 0 0 0-.623.242c-.17.104-.3.229-.393.374a.888.888 0 0 0-.14.49c0 .196.053.373.156.529.104.156.252.304.443.444s.423.276.696.41c.273.135.582.274.926.416.47.197.892.407 1.266.628.374.222.695.473.963.753.268.279.472.598.614.957.142.359.214.776.214 1.253 0 .657-.125 1.21-.373 1.656a3.033 3.033 0 0 1-1.012 1.085 4.38 4.38 0 0 1-1.487.596c-.566.12-1.163.18-1.79.18a9.916 9.916 0 0 1-1.84-.164 5.544 5.544 0 0 1-1.512-.493v-2.63a5.033 5.033 0 0 0 3.237 1.2c.333 0 .624-.03.872-.09.249-.06.456-.144.623-.25.166-.108.29-.234.373-.38a1.023 1.023 0 0 0-.074-1.089 2.12 2.12 0 0 0-.537-.5 5.597 5.597 0 0 0-.807-.444 27.72 27.72 0 0 0-1.007-.436c-.918-.383-1.602-.852-2.053-1.405-.45-.553-.676-1.222-.676-2.005 0-.614.123-1.141.369-1.582.246-.441.58-.804 1.004-1.089a4.494 4.494 0 0 1 1.47-.629 7.536 7.536 0 0 1 1.77-.201zm-15.113.188h9.563v2.166H9.506v9.646H6.789v-9.646H3.375z" fill="#3178C6"></path>
      </g>
      <text x="58" y="96" class="name">TypeScript</text>
      <text x="58" y="120" class="pct">50%</text>
      <rect x="32" y="136" width="92" height="8" rx="4" fill="#eef2f7"/>
      <rect x="32" y="136" width="46" height="8" rx="4" fill="#3178C6"/>
    </g>
    <g>
      <rect x="150" y="64" width="120" height="96" rx="14" fill="#ffffff" stroke="#e5e7eb"/>
      
      <g transform="translate(166, 82) scale(0.75)" aria-hidden="true">
        <path d="M0 0h24v24H0V0zm22.034 18.276c-.175-1.095-.888-2.015-3.003-2.873-.736-.345-1.554-.585-1.797-1.14-.091-.33-.105-.51-.046-.705.15-.646.915-.84 1.515-.66.39.12.75.42.976.9 1.034-.676 1.034-.676 1.755-1.125-.27-.42-.404-.601-.586-.78-.63-.705-1.469-1.065-2.834-1.034l-.705.089c-.676.165-1.32.525-1.71 1.005-1.14 1.291-.811 3.541.569 4.471 1.365 1.02 3.361 1.244 3.616 2.205.24 1.17-.87 1.545-1.966 1.41-.811-.18-1.26-.586-1.755-1.336l-1.83 1.051c.21.48.45.689.81 1.109 1.74 1.756 6.09 1.666 6.871-1.004.029-.09.24-.705.074-1.65l.046.067zm-8.983-7.245h-2.248c0 1.938-.009 3.864-.009 5.805 0 1.232.063 2.363-.138 2.711-.33.689-1.18.601-1.566.48-.396-.196-.597-.466-.83-.855-.063-.105-.11-.196-.127-.196l-1.825 1.125c.305.63.75 1.172 1.324 1.517.855.51 2.004.675 3.207.405.783-.226 1.458-.691 1.811-1.411.51-.93.402-2.07.397-3.346.012-2.054 0-4.109 0-6.179l.004-.056z" fill="#F7DF1E"></path>
      </g>
      <text x="190" y="96" class="name">JavaScript</text>
      <text x="190" y="120" class="pct">36%</text>
      <rect x="164" y="136" width="92" height="8" rx="4" fill="#eef2f7"/>
      <rect x="164" y="136" width="33" height="8" rx="4" fill="#F7DF1E"/>
    </g>
    <g>
      <rect x="282" y="64" width="120" height="96" rx="14" fill="#ffffff" stroke="#e5e7eb"/>
      
      <g transform="translate(298, 82) scale(0.75)" aria-hidden="true">
        <path d="M1.811 10.231c-.047 0-.058-.023-.035-.059l.246-.315c.023-.035.081-.058.128-.058h4.172c.046 0 .058.035.035.07l-.199.303c-.023.036-.082.07-.117.07zM.047 11.306c-.047 0-.059-.023-.035-.058l.245-.316c.023-.035.082-.058.129-.058h5.328c.047 0 .07.035.058.07l-.093.28c-.012.047-.058.07-.105.07zm2.828 1.075c-.047 0-.059-.035-.035-.07l.163-.292c.023-.035.07-.07.117-.07h2.337c.047 0 .07.035.07.082l-.023.28c0 .047-.047.082-.082.082zm12.129-2.36c-.736.187-1.239.327-1.963.514-.176.046-.187.058-.34-.117-.174-.199-.303-.327-.548-.444-.737-.362-1.45-.257-2.115.175-.795.514-1.204 1.274-1.192 2.22.011.935.654 1.706 1.577 1.835.795.105 1.46-.175 1.987-.77.105-.13.198-.27.315-.434H10.47c-.245 0-.304-.152-.222-.35.152-.362.432-.97.596-1.274a.315.315 0 01.292-.187h4.253c-.023.316-.023.631-.07.947a4.983 4.983 0 01-.958 2.29c-.841 1.11-1.94 1.8-3.33 1.986-1.145.152-2.209-.07-3.143-.77-.865-.655-1.356-1.52-1.484-2.595-.152-1.274.222-2.419.993-3.424.83-1.086 1.928-1.776 3.272-2.02 1.098-.2 2.15-.07 3.096.571.62.41 1.063.97 1.356 1.648.07.105.023.164-.117.2m3.868 6.461c-1.064-.024-2.034-.328-2.852-1.029a3.665 3.665 0 01-1.262-2.255c-.21-1.32.152-2.489.947-3.529.853-1.122 1.881-1.706 3.272-1.95 1.192-.21 2.314-.095 3.33.595.923.63 1.496 1.484 1.648 2.605.198 1.578-.257 2.863-1.344 3.962-.771.783-1.718 1.273-2.805 1.495-.315.06-.63.07-.934.106zm2.78-4.72c-.011-.153-.011-.27-.034-.387-.21-1.157-1.274-1.81-2.384-1.554-1.087.245-1.788.935-2.045 2.033-.21.912.234 1.835 1.075 2.21.643.28 1.285.244 1.905-.07.923-.48 1.425-1.228 1.484-2.233z" fill="#00ADD8"></path>
      </g>
      <text x="322" y="96" class="name">Go</text>
      <text x="322" y="120" class="pct">14%</text>
      <rect x="296" y="136" width="92" height="8" rx="4" fill="#eef2f7"/>
      <rect x="296" y="136" width="13" height="8" rx="4" fill="#00ADD8"/>
    </g>

  <text x="18" y="180" class="foot">Source: GitHub Linguist (repo languages API) • Icons: simple-icons</text>
</svg>