<?xml version="1.0" encoding="UTF-8"?>
<svg xmlns="http://www.w3.org/2000/svg" width="816" height="194" viewBox="0 0 816 194" role="img" aria-label="Languages used across GitHub repos">
  <defs>
    <style>
      .h1 { font: 800 16px system-ui, -apple-system, Segoe UI, Roboto, Helvetica, Arial; fill: #111827; }
      .sub { font: 500 12px system-ui, -apple-system, Segoe UI, Roboto, Helvetica, Arial; fill: #6b7280; }
      .mono { font: 900 12px system-ui, -apple-system, Segoe UI, Roboto, Helvetica, Arial; }
      .name { font: 700 12px system-ui, -apple-system, Segoe UI, Roboto, Helvetica, Arial; fill: #111827; }
      .pct { font: 800 16px system-ui, -apple-system, Segoe UI, Roboto, Helvetica, Arial; fill: #111827; }
      .foot { font: 500 12px system-ui, -apple-system, Segoe UI, Roboto, Helvetica, Arial; fill: #6b7280; }
    </style>
  </defs>

  <rect x="0.5" y="0.5" width="815" height="193" rx="16" fill="#ffffff" stroke="#e5e7eb"/>
  <text x="18" y="30" class="h1">Languages used</text>
  <text x="18" y="48" class="sub">Across public repos • Updated: 2026-02-23</text>

  
    <g>
      <rect x="18" y="64" width="120" height="96" rx="14" fill="#ffffff" stroke="#e5e7eb"/>
      <g transform="translate(32, 78) scale(0.046875)" aria-hidden="true"><path d="M508.5 249.8l-21.8-13.5c-.2-2-.3-3.9-.5-5.9l18.7-17.5c.9-.9 1.6-1.9 2-3.1s.5-2.5 .2-3.7-.8-2.4-1.6-3.3-1.8-1.7-3-2.1l-24-9c-.5-1.9-1.1-3.8-1.7-5.6l15-20.8c.7-1 1.2-2.2 1.3-3.4s0-2.5-.5-3.7-1.2-2.2-2.2-2.9-2.1-1.3-3.4-1.5l-25.4-4.2c-.9-1.7-1.8-3.4-2.7-5.2l10.7-23.4c.5-1.1 .7-2.4 .6-3.6s-.5-2.4-1.2-3.5-1.6-1.9-2.8-2.5-2.4-.8-3.6-.8l-25.8 .9c-1.2-1.5-2.4-2.9-3.6-4.4L439 81.8c.3-1.2 .3-2.5-.1-3.7s-1-2.3-1.9-3.2-2-1.5-3.2-1.9-2.5-.4-3.7-.1L405 78.9c-1.4-1.2-2.9-2.4-4.4-3.6l.9-25.8c.1-1.3-.2-2.5-.8-3.6s-1.4-2.1-2.5-2.8-2.2-1.1-3.5-1.2-2.5 .1-3.7 .6L367.7 53.2c-1.7-.9-3.4-1.8-5.1-2.7l-4.2-25.4c-.2-1.2-.7-2.4-1.5-3.4s-1.8-1.7-2.9-2.2-2.4-.7-3.7-.5-2.4 .6-3.4 1.3L326 35.3c-1.9-.6-3.8-1.1-5.6-1.7l-9-24c-.4-1.2-1.2-2.2-2.1-3s-2.1-1.4-3.3-1.6-2.5-.2-3.7 .2-2.3 1.1-3.1 2L281.6 25.9c-2-.2-3.9-.4-5.9-.5L262.3 3.5c-.7-1.1-1.6-1.9-2.7-2.6s-2.3-.9-3.6-.9-2.5 .3-3.6 .9-2 1.5-2.7 2.6L236.2 25.3c-2 .2-3.9 .3-5.9 .6L212.9 7.1c-.9-.9-1.9-1.6-3.1-2s-2.5-.5-3.7-.2-2.4 .8-3.3 1.6-1.7 1.8-2.1 3l-9 24c-1.9 .6-3.8 1.1-5.7 1.7l-20.8-15c-1-.7-2.2-1.2-3.4-1.3s-2.5 0-3.7 .5-2.2 1.2-2.9 2.2-1.3 2.1-1.5 3.4l-4.2 25.4c-1.7 .9-3.4 1.8-5.2 2.7L120.9 42.6c-1.1-.5-2.4-.7-3.7-.6s-2.5 .5-3.5 1.2-1.9 1.7-2.5 2.8-.8 2.4-.8 3.6l.9 25.8c-1.5 1.2-3 2.4-4.4 3.6L81.8 73c-1.2-.3-2.5-.3-3.7 .1s-2.3 1-3.2 1.9-1.5 2-1.9 3.2-.4 2.5-.1 3.7L78.9 107c-1.2 1.4-2.4 2.9-3.6 4.4l-25.8-.9c-1.3 0-2.5 .2-3.6 .8s-2.1 1.4-2.8 2.4-1.1 2.2-1.2 3.5 .1 2.5 .6 3.6l10.7 23.4c-.9 1.7-1.8 3.4-2.7 5.2l-25.4 4.1c-1.2 .2-2.4 .7-3.4 1.5s-1.7 1.8-2.2 2.9-.7 2.4-.5 3.7 .6 2.4 1.3 3.4l15 20.8c-.6 1.9-1.1 3.8-1.7 5.7l-24 9c-1.2 .4-2.2 1.2-3 2.1s-1.4 2.1-1.6 3.3-.2 2.5 .2 3.7 1.1 2.3 2 3.1l18.7 17.5c-.2 2-.4 3.9-.6 5.9L3.5 249.8c-1.1 .7-1.9 1.6-2.6 2.7s-.9 2.3-.9 3.6 .3 2.5 .9 3.6 1.5 2 2.6 2.7l21.8 13.5c.2 2 .3 3.9 .6 5.9L7.1 299.1c-.9 .9-1.6 1.9-2 3.1s-.5 2.5-.2 3.7 .8 2.4 1.6 3.3 1.8 1.7 3 2.1l24 9c.6 1.9 1.1 3.8 1.7 5.6l-15 20.8c-.7 1-1.2 2.2-1.3 3.4s0 2.5 .5 3.7 1.2 2.2 2.2 2.9 2.1 1.3 3.4 1.5l25.4 4.2c.9 1.7 1.8 3.4 2.7 5.1L42.6 391.1c-.5 1.1-.7 2.4-.6 3.6s.5 2.5 1.2 3.5c.7 1.1 1.6 1.9 2.7 2.5s2.4 .8 3.6 .8l25.8-.9c1.2 1.5 2.4 2.9 3.6 4.4L73 430.2c-.3 1.2-.3 2.5 .1 3.7s1 2.3 1.9 3.2 2 1.5 3.2 1.9 2.5 .4 3.7 .1l25.2-5.9c1.5 1.2 2.9 2.4 4.4 3.6l-.9 25.8c0 1.3 .2 2.5 .8 3.6s1.4 2.1 2.5 2.8 2.2 1.1 3.5 1.2 2.5-.1 3.6-.6l23.4-10.7c1.7 .9 3.4 1.8 5.1 2.7l4.2 25.4c.2 1.2 .7 2.4 1.5 3.4s1.8 1.8 2.9 2.2 2.4 .7 3.7 .5 2.4-.6 3.4-1.3l20.8-15c1.9 .6 3.8 1.1 5.6 1.7l9 24c.4 1.2 1.2 2.2 2.1 3s2.1 1.4 3.3 1.6 2.5 .2 3.7-.2 2.3-1.1 3.1-2l17.5-18.7c2 .2 3.9 .4 5.9 .6l13.5 21.8c.7 1.1 1.6 1.9 2.7 2.6s2.3 .9 3.6 .9 2.5-.3 3.6-.9 2-1.5 2.7-2.6l13.5-21.8c2-.2 3.9-.3 5.9-.6l17.5 18.7c.9 .9 1.9 1.6 3.1 2s2.5 .5 3.7 .2 2.4-.8 3.3-1.6 1.7-1.8 2.1-3l9-24c1.9-.6 3.8-1.1 5.6-1.7l20.8 15c1 .7 2.2 1.2 3.4 1.3s2.5 0 3.7-.5 2.2-1.2 2.9-2.2 1.3-2.1 1.5-3.4l4.2-25.4c1.7-.9 3.4-1.8 5.1-2.7l23.4 10.7c1.1 .5 2.4 .7 3.6 .6s2.4-.5 3.5-1.2 1.9-1.6 2.5-2.8 .8-2.4 .8-3.6l-.9-25.8c1.5-1.2 2.9-2.4 4.4-3.6l25.2 5.9c1.2 .3 2.5 .3 3.7-.1s2.3-1 3.2-1.9 1.5-2 1.9-3.2 .4-2.5 .1-3.7L433.1 405c1.2-1.4 2.4-2.9 3.6-4.4l25.8 .9c1.3 .1 2.5-.2 3.6-.8s2.1-1.4 2.8-2.5c.7-1 1.1-2.2 1.2-3.5s-.1-2.5-.6-3.6l-10.7-23.4c.9-1.7 1.8-3.4 2.7-5.1l25.4-4.2c1.2-.2 2.4-.7 3.4-1.5s1.8-1.8 2.2-2.9 .7-2.4 .5-3.7-.6-2.4-1.3-3.4l-15-20.8c.6-1.9 1.1-3.8 1.7-5.6l24-9c1.2-.4 2.2-1.2 3-2.1s1.4-2.1 1.6-3.3 .2-2.5-.2-3.7-1.1-2.3-2-3.1l-18.7-17.5c.2-1.9 .4-3.9 .6-5.9l21.8-13.5c1.1-.7 1.9-1.6 2.6-2.7s.9-2.3 .9-3.6-.3-2.5-.9-3.6-1.5-2-2.6-2.7l0 0zm-151 129.1c-3.6-.8-7.4-.1-10.5 1.9s-5.3 5.2-6 8.8l-7.6 35.7c-24.6 11.1-51.3 16.8-78.3 16.7s-53.6-6.1-78.1-17.4l-7.6-35.7c-.4-1.8-1.1-3.5-2.1-5s-2.4-2.8-3.9-3.8-3.2-1.7-5-2-3.6-.3-5.4 .1l-31.5 6.8c-5.8-6-11.3-12.5-16.3-19.2l153.2 0c1.7 0 2.9-.3 2.9-1.9l0-54.2c0-1.6-1.2-1.9-2.9-1.9l-44.8 0 0-34.4 48.5 0c4.4 0 23.7 1.3 29.8 25.9 1.9 7.5 6.2 32.1 9.1 40 2.9 8.8 14.6 26.5 27.1 26.5l79 0c-5.3 7.1-11.1 13.8-17.3 20.1l-32.1-6.9zm25.8 34.5c0 3-.9 6-2.6 8.5s-4 4.5-6.8 5.6-5.8 1.5-8.8 .9-5.7-2-7.8-4.2-3.6-4.8-4.2-7.8-.3-6 .8-8.8 3.1-5.2 5.6-6.9 5.4-2.6 8.5-2.6l.4 0c4 .1 7.7 1.8 10.5 4.6s4.3 6.7 4.3 10.6l.1 0zm-225.6-.7c0 3-.9 6-2.6 8.5s-4.1 4.5-6.8 5.6-5.8 1.5-8.8 .9-5.7-2-7.8-4.2-3.6-4.8-4.2-7.8-.3-6 .9-8.8 3.1-5.2 5.6-6.8 5.4-2.6 8.5-2.6l.5 0c4 .1 7.7 1.8 10.5 4.6s4.3 6.7 4.3 10.6l.1 0zM69.6 234.2l32.8-14.6c1.7-.7 3.2-1.8 4.4-3.1s2.2-2.9 2.9-4.6 1-3.5 .9-5.3-.5-3.6-1.2-5.3l-6.8-15.2 26.6 0 0 119.7-53.6 0c-6.6-23.2-8.7-47.6-6.1-71.6zM58.3 198.1c0-2 .4-4 1.2-5.8s1.9-3.5 3.3-4.9 3.1-2.5 4.9-3.3 3.8-1.2 5.8-1.2l.5 0c3 .1 5.9 1 8.3 2.8s4.3 4.1 5.4 6.9 1.3 5.8 .7 8.8-2.1 5.6-4.3 7.7-4.9 3.5-7.8 4.1-6 .2-8.7-.9-5.1-3.1-6.8-5.6-2.5-5.4-2.5-8.4l0 0zm155.2 24.5l0-35.3 63.3 0c3.3 0 23.1 3.8 23.1 18.6 0 12.3-15.2 16.7-27.7 16.7l-58.7 0zM399 306.7c-9.8 1.1-20.6-4.1-22-10.1-5.8-32.5-15.4-39.4-30.6-51.4 18.9-12 38.5-29.6 38.5-53.3 0-25.5-17.5-41.6-29.4-49.5-16.8-11-35.3-13.2-40.3-13.2l-198.9 0c27.5-30.7 64.4-51.5 104.9-59.2l23.5 24.6c1.3 1.3 2.8 2.4 4.4 3.1s3.5 1.1 5.3 1.2 3.6-.3 5.3-.9 3.2-1.7 4.6-2.9l26.3-25c26.8 5 52.1 15.8 74.3 31.6s40.6 36.2 54.1 59.9l-18 40.6c-1.5 3.4-1.5 7.2-.2 10.6s3.9 6.2 7.3 7.7l34.6 15.3c1.1 10.8 1.2 21.7 .4 32.5l-19.3 0c-1.9 0-2.7 1.3-2.7 3.1l0 8.8c0 20.8-11.7 25.3-22 26.5zM240 60.2c0-4 1.6-7.9 4.5-10.7s6.7-4.5 10.7-4.5l.4 0c3 .1 5.9 1 8.4 2.8s4.3 4.1 5.4 6.9 1.3 5.8 .7 8.8-2.1 5.6-4.3 7.7-4.9 3.5-7.8 4-6 .2-8.7-.9-5.1-3.1-6.8-5.6-2.5-5.4-2.5-8.4zM436.8 214c-2 0-4-.4-5.8-1.2s-3.5-1.9-4.9-3.3-2.5-3.1-3.3-4.9-1.2-3.8-1.2-5.8 .4-4 1.2-5.8 1.9-3.5 3.3-4.9 3.1-2.5 4.9-3.3 3.8-1.2 5.8-1.2l.4 0c4 .1 7.9 1.7 10.7 4.6s4.4 6.8 4.3 10.8-1.7 7.9-4.6 10.7-6.8 4.4-10.8 4.3z" fill="#DEA584"></path></g>
      <text x="62" y="96" class="name">Rust</text>
      <text x="62" y="120" class="pct">55%</text>
      <rect x="32" y="136" width="92" height="8" rx="4" fill="#eef2f7"/>
      <rect x="32" y="136" width="51" height="8" rx="4" fill="#DEA584"/>
    </g>
    <g>
      <rect x="150" y="64" width="120" height="96" rx="14" fill="#ffffff" stroke="#e5e7eb"/>
      
    <circle cx="176" cy="90" r="12" fill="#3178C6"/>
    <text x="176" y="95" text-anchor="middle" class="mono" fill="#ffffff" style="font-size:13px">TS</text>
      <text x="194" y="96" class="name">TypeScript</text>
      <text x="194" y="120" class="pct">20%</text>
      <rect x="164" y="136" width="92" height="8" rx="4" fill="#eef2f7"/>
      <rect x="164" y="136" width="18" height="8" rx="4" fill="#3178C6"/>
    </g>
    <g>
      <rect x="282" y="64" width="120" height="96" rx="14" fill="#ffffff" stroke="#e5e7eb"/>
      <g transform="translate(297.5, 78) scale(0.046875)" aria-hidden="true"><path d="M0 32l0 448 448 0 0-448-448 0zM243.8 381.4c0 43.6-25.6 63.5-62.9 63.5-33.7 0-53.2-17.4-63.2-38.5L152 385.7c6.6 11.7 12.6 21.6 27.1 21.6 13.8 0 22.6-5.4 22.6-26.5l0-143.1 42.1 0 0 143.7zm99.6 63.5c-39.1 0-64.4-18.6-76.7-43L301 382.1c9 14.7 20.8 25.6 41.5 25.6 17.4 0 28.6-8.7 28.6-20.8 0-14.4-11.4-19.5-30.7-28l-10.5-4.5c-30.4-12.9-50.5-29.2-50.5-63.5 0-31.6 24.1-55.6 61.6-55.6 26.8 0 46 9.3 59.8 33.7L368 290c-7.2-12.9-15-18-27.1-18-12.3 0-20.1 7.8-20.1 18 0 12.6 7.8 17.7 25.9 25.6l10.5 4.5c35.8 15.3 55.9 31 55.9 66.2 0 37.8-29.8 58.6-69.7 58.6z" fill="#F7DF1E"></path></g>
      <text x="326" y="96" class="name">JavaScript</text>
      <text x="326" y="120" class="pct">15%</text>
      <rect x="296" y="136" width="92" height="8" rx="4" fill="#eef2f7"/>
      <rect x="296" y="136" width="14" height="8" rx="4" fill="#F7DF1E"/>
    </g>
    <g>
      <rect x="414" y="64" width="120" height="96" rx="14" fill="#ffffff" stroke="#e5e7eb"/>
      <g transform="translate(428, 80.4) scale(0.0375)" aria-hidden="true"><path d="M400.1 194.8c-10.9 2.8-19.9 4.3-29.1 7.6-7.3 1.9-14.7 3.9-23.2 6.1l-.6 .1c-4.2 1.2-4.6 1.3-8.5-3.2-4.7-5.3-8.1-8.7-14.6-11.9-19.7-9.6-38.7-6.8-56.4 4.7-21.2 13.7-32.1 34-31.8 59.2 .3 25 17.4 45.5 41.2 48.9 22 2.8 39.8-4.6 53.8-20.5 2.1-2.6 4-5.3 6.1-8.3 .8-1 1.5-2.1 2.3-3.3l-60.1 0c-6.5 0-8.1-4-5.9-9.3 4-9.7 11.5-25.9 15.9-34 .9-1.8 3.1-5.8 6.9-5.8l101.1 0c4.5-13.4 11.8-26.9 21.6-39.7 22.7-29.9 49.3-45.5 87.2-52 31.8-5.6 61.7-2.5 88.9 15.9 24.6 16.8 39.8 39.6 43.9 69.5 5.3 42.1-6.9 76.3-36.7 105.6-19.7 20.9-44.9 34-73.9 39.9-5.6 1-11.1 1.5-16.5 2-2.9 .2-5.7 .5-8.5 .8-28.3-.6-54.2-8.7-76-27.4-15.3-13.3-25.9-29.6-31.1-48.5-3.7 7.3-8 14.4-14 21.1-21.6 29.6-50.9 48-87.9 52.9-30.6 4.1-58.9-1.8-83.9-20.5-23-17.5-36.1-40.5-39.5-69.2-4.1-34 5.9-65.4 26.4-91.3 22.2-29 51.5-47.4 87.3-53.9 29.3-6.2 57.3-1.9 82.6 15.3 16.5 10.9 28.3 25.8 36.1 43.9 1.9 2.8 .6 4.4-3.1 5.3zM48.3 200.4c-1.3 0-1.6-.6-.9-1.6l6.6-8.4c.6-.9 2.2-1.5 3.4-1.5l111.3 0c1.2 0 1.5 .9 .9 1.8l-5.3 8.1c-.6 1-2.2 1.9-3.1 1.9l-112.8-.3zM1.2 229.1c-1.2 0-1.6-.7-.9-1.6l6.5-8.4c.6-.9 2.2-1.6 3.4-1.6l142.1 0c1.2 0 1.8 1 1.5 1.9l-2.5 7.5c-.3 1.2-1.5 1.9-2.8 1.9L1.2 229.1zm74.5 26.8c-.6 .9-.3 1.8 .9 1.8l68 .3c.9 0 2.2-.9 2.2-2.1l.6-7.5c0-1.3-.6-2.2-1.9-2.2l-62.3 0c-1.2 0-2.5 .9-3.1 1.9l-4.4 7.8zm501.5-18c-.2-2.6-.3-4.8-.7-7-5.6-30.8-34-48.3-63.6-41.4-29 6.5-47.7 24.9-54.5 54.2-5.6 24.3 6.2 48.9 28.6 58.9 17.2 7.5 34.3 6.6 50.8-1.9 24.6-13.6 38-32.7 39.6-59.5-.1-1.2-.1-2.3-.2-3.3z" fill="#00ADD8"></path></g>
      <text x="458" y="96" class="name">Go</text>
      <text x="458" y="120" class="pct">6%</text>
      <rect x="428" y="136" width="92" height="8" rx="4" fill="#eef2f7"/>
      <rect x="428" y="136" width="6" height="8" rx="4" fill="#00ADD8"/>
    </g>
    <g>
      <rect x="546" y="64" width="120" height="96" rx="14" fill="#ffffff" stroke="#e5e7eb"/>
      <g transform="translate(563, 78) scale(0.046875)" aria-hidden="true"><path d="M277.8 312.9c9.8-6.7 23.4-12.5 23.4-12.5s-38.7 7-77.2 10.2c-47.1 3.9-97.7 4.7-123.1 1.3-60.1-8 33-30.1 33-30.1s-36.1-2.4-80.6 19c-52.5 25.4 130 37 224.5 12.1zm-85.4-32.1c-19-42.7-83.1-80.2 0-145.8 103.7-81.8 50.5-135 50.5-135 21.5 84.5-75.6 110.1-110.7 162.6-23.9 35.9 11.7 74.4 60.2 118.2zM307 104.6c.1 0-175.2 43.8-91.5 140.2 24.7 28.4-6.5 54-6.5 54s62.7-32.4 33.9-72.9C216 188.1 195.4 169.3 307 104.6zm-6.1 270.5c-.5 1-1.2 1.8-2 2.6 128.3-33.7 81.1-118.9 19.8-97.3-3.3 1.2-6.2 3.4-8.2 6.3 3.6-1.3 7.3-2.3 11-3 31-6.5 75.5 41.5-20.6 91.4zM348 437.4s14.5 11.9-15.9 21.2c-57.9 17.5-240.8 22.8-291.6 .7-18.3-7.9 16-19 26.8-21.3 11.2-2.4 17.7-2 17.7-2-20.3-14.3-131.3 28.1-56.4 40.2 204.2 33.2 372.4-14.9 319.4-38.8zM124.5 396c-78.7 22 47.9 67.4 148.1 24.5-9.8-3.8-19.2-8.4-28.2-13.8-44.7 8.5-65.4 9.1-106 4.5-33.5-3.8-13.9-15.2-13.9-15.2zm179.8 97.2c-78.7 14.8-175.8 13.1-233.3 3.6 0-.1 11.8 9.7 72.4 13.6 92.2 5.9 233.8-3.3 237.1-46.9 0 0-6.4 16.5-76.2 29.7zM260.7 353c-59.2 11.4-93.5 11.1-136.8 6.6-33.5-3.5-11.6-19.7-11.6-19.7-86.8 28.8 48.2 61.4 169.5 25.9-7.8-2.8-15-7.1-21.1-12.8z" fill="#ED8B00"></path></g>
      <text x="590" y="96" class="name">Java</text>
      <text x="590" y="120" class="pct">4%</text>
      <rect x="560" y="136" width="92" height="8" rx="4" fill="#eef2f7"/>
      <rect x="560" y="136" width="4" height="8" rx="4" fill="#ED8B00"/>
    </g>

  <text x="18" y="180" class="foot">Source: GitHub Linguist (repo languages API) • Icons: Font Awesome Free (CC BY 4.0)</text>
</svg>