<?xml version="1.0" encoding="UTF-8"?>
<svg xmlns="http://www.w3.org/2000/svg" width="480" height="160" viewBox="0 0 480 160" role="img" aria-label="LeetCode stats for dmitry_ma">
  <defs>
    <style>
      .h1 { font: 700 16px system-ui, -apple-system, Segoe UI, Roboto, Helvetica, Arial; fill: #111827; }
      .muted { font: 600 11px system-ui, -apple-system, Segoe UI, Roboto, Helvetica, Arial; fill: #6b7280; letter-spacing: .6px; }
      .num { font: 750 22px system-ui, -apple-system, Segoe UI, Roboto, Helvetica, Arial; fill: #111827; }
      .small { font: 500 12px system-ui, -apple-system, Segoe UI, Roboto, Helvetica, Arial; fill: #6b7280; }
      .track { fill: #eef2f7; }
      .easy { fill: #22c55e; }
      .med  { fill: #f59e0b; }
      .hard { fill: #ef4444; }
    </style>
  </defs>

  <rect x="0.5" y="0.5" width="479" height="159" rx="14" fill="#ffffff" stroke="#e5e7eb"/>

  <text x="18" y="30" class="h1">LeetCode — dmitry_ma</text>

  <line x1="18" y1="44" x2="462" y2="44" stroke="#e5e7eb"/>

  <text x="18" y="70" class="muted">TOTAL SOLVED</text>
  <text x="18" y="104" class="num">664</text>

  <line x1="150" y1="58" x2="150" y2="116" stroke="#e5e7eb"/>
  <line x1="276" y1="58" x2="276" y2="116" stroke="#e5e7eb"/>
  <line x1="372" y1="58" x2="372" y2="116" stroke="#e5e7eb"/>

  <text x="168" y="70" class="muted">EASY</text>
  <text x="168" y="104" class="num">246</text>
  <rect x="168" y="112" width="86" height="8" rx="4" class="track"/>
  <rect x="168" y="112" width="32" height="8" rx="4" class="easy"/>

  <text x="294" y="70" class="muted">MEDIUM</text>
  <text x="294" y="104" class="num">378</text>
  <rect x="294" y="112" width="86" height="8" rx="4" class="track"/>
  <rect x="294" y="112" width="49" height="8" rx="4" class="med"/>

  <text x="390" y="70" class="muted">HARD</text>
  <text x="390" y="104" class="num">40</text>
  <rect x="390" y="112" width="86" height="8" rx="4" class="track"/>
  <rect x="390" y="112" width="5" height="8" rx="4" class="hard"/>

  <text x="18" y="140" class="small">Updated: 2026-01-08 • Source: leetcode.com</text>
</svg>